# xmcd
#
# Track frame offsets:
#	150
#	13697
#	30087
#	42350
#	59971
#	76497
#	93203
#	111391
#	129279
#	144081
#	156821
#	173764
#	189045
#	202380
#	222694
#	240346
#	251958
#	268194
#	285000
#	300348
#	313967
#	333908
#	348120
#
# Disc length: 4856 seconds
# Revision: 2
# Processed by: cddbd v1.5.2PL0 Copyright (c) Steve Scherf et al.
# Submitted via: dBpowerAMP V12.0
#
DISCID=4312f617
DTITLE=Various Artist - So Country 2018
DYEAR=2018
DGENRE=Country Sampler
TTITLE0=Chris Stapleton - Broken Halos
TTITLE1=Kenny Chesney With P!Nk - Setting The World On Fire
TTITLE2=Sam Hunt - Body Like A Back Road
TTITLE3=The McClymonts - Don't Wish It All Away
TTITLE4=Shania Twain - Life's About To Get Good
TTITLE5=Adam Eckersley and Brooke McClymont - Train Wreck
TTITLE6=Luke Combs - When It Rains It Pours
TTITLE7=Kelsea Ballerini - Legends
TTITLE8=Darius Rucker - For The First Time
TTITLE9=Miranda Lambert - We Should Be Friends
TTITLE10=Tim McGraw and Faith Hill - The Rest Of Our Life
TTITLE11=Willie Nelson - A Woman's Love
TTITLE12=Judah Kelly - Count On Me
TTITLE13=O'Shea - I Will Not Give Up
TTITLE14=Brad Paisley Feat. Demi Lovato - Without A Fight
TTITLE15=Kip Moore - More Girls Like You
TTITLE16=Brothers Osborne - It Ain't My Fault
TTITLE17=Lee Brice - Rumor
TTITLE18=Drew McAlister - Coming Your Way
TTITLE19=Shane Nicholson - Safe
TTITLE20=LeAnn Rimes - How To Kiss A Boy
TTITLE21=James Barker Band - Chills
TTITLE22=Lauren Alaina - Road Less Travelled
EXTD=
EXTT0=
EXTT1=
EXTT2=
EXTT3=
EXTT4=
EXTT5=
EXTT6=
EXTT7=
EXTT8=
EXTT9=
EXTT10=
EXTT11=
EXTT12=
EXTT13=
EXTT14=
EXTT15=
EXTT16=
EXTT17=
EXTT18=
EXTT19=
EXTT20=
EXTT21=
EXTT22=
PLAYORDER=
